<mxfile host="app.diagrams.net" modified="2023-05-25T20:36:20.477Z" agent="Mozilla/5.0 (Windows NT 10.0; Win64; x64) AppleWebKit/537.36 (KHTML, like Gecko) Chrome/113.0.0.0 Safari/537.36" etag="jJEoqNrc-72c5dggt4BR" version="21.3.4">
  <diagram name="Page-1" id="3j9Ng2dxhRBzdvQ4t3l0">
    <mxGraphModel dx="1195" dy="633" grid="1" gridSize="10" guides="1" tooltips="1" connect="1" arrows="1" fold="1" page="1" pageScale="1" pageWidth="827" pageHeight="1169" math="0" shadow="0">
      <root>
        <mxCell id="0" />
        <mxCell id="1" parent="0" />
        <mxCell id="buExIWMHna82emhuYfHf-62" value="Utilisateurs" style="outlineConnect=0;dashed=0;verticalLabelPosition=bottom;verticalAlign=top;align=center;html=1;shape=mxgraph.aws3.users;fillColor=#D2D3D3;gradientColor=none;" vertex="1" parent="1">
          <mxGeometry x="50" y="50" width="66" height="63" as="geometry" />
        </mxCell>
        <mxCell id="buExIWMHna82emhuYfHf-63" value="Frontend - Interface &lt;br&gt;utilisateur" style="image;aspect=fixed;perimeter=ellipsePerimeter;html=1;align=center;shadow=0;dashed=0;spacingTop=3;image=img/lib/active_directory/web_server.svg;" vertex="1" parent="1">
          <mxGeometry x="250" y="50" width="40" height="50" as="geometry" />
        </mxCell>
        <mxCell id="buExIWMHna82emhuYfHf-64" value="Base de données" style="image;aspect=fixed;perimeter=ellipsePerimeter;html=1;align=center;shadow=0;dashed=0;spacingTop=3;image=img/lib/active_directory/database_server.svg;" vertex="1" parent="1">
          <mxGeometry x="650" y="50" width="41" height="50" as="geometry" />
        </mxCell>
        <mxCell id="buExIWMHna82emhuYfHf-65" value="Backend - API REST" style="image;aspect=fixed;perimeter=ellipsePerimeter;html=1;align=center;shadow=0;dashed=0;spacingTop=3;image=img/lib/active_directory/web_server.svg;" vertex="1" parent="1">
          <mxGeometry x="460" y="50" width="40" height="50" as="geometry" />
        </mxCell>
        <mxCell id="buExIWMHna82emhuYfHf-66" value="" style="endArrow=classic;html=1;rounded=0;" edge="1" parent="1">
          <mxGeometry width="50" height="50" relative="1" as="geometry">
            <mxPoint x="90" y="157" as="sourcePoint" />
            <mxPoint x="90" y="437" as="targetPoint" />
          </mxGeometry>
        </mxCell>
        <mxCell id="buExIWMHna82emhuYfHf-67" value="" style="endArrow=classic;html=1;rounded=0;" edge="1" parent="1">
          <mxGeometry width="50" height="50" relative="1" as="geometry">
            <mxPoint x="290" y="157" as="sourcePoint" />
            <mxPoint x="290" y="437" as="targetPoint" />
          </mxGeometry>
        </mxCell>
        <mxCell id="buExIWMHna82emhuYfHf-68" value="" style="endArrow=classic;html=1;rounded=0;" edge="1" parent="1">
          <mxGeometry width="50" height="50" relative="1" as="geometry">
            <mxPoint x="490" y="157" as="sourcePoint" />
            <mxPoint x="490" y="437" as="targetPoint" />
          </mxGeometry>
        </mxCell>
        <mxCell id="buExIWMHna82emhuYfHf-69" value="" style="endArrow=classic;html=1;rounded=0;" edge="1" parent="1">
          <mxGeometry width="50" height="50" relative="1" as="geometry">
            <mxPoint x="691" y="157" as="sourcePoint" />
            <mxPoint x="690" y="437" as="targetPoint" />
          </mxGeometry>
        </mxCell>
        <mxCell id="buExIWMHna82emhuYfHf-70" value="" style="endArrow=classic;html=1;rounded=0;" edge="1" parent="1">
          <mxGeometry width="50" height="50" relative="1" as="geometry">
            <mxPoint x="90" y="197" as="sourcePoint" />
            <mxPoint x="290" y="197" as="targetPoint" />
          </mxGeometry>
        </mxCell>
        <mxCell id="buExIWMHna82emhuYfHf-71" value="L&#39;utilisateur clique sur la page &lt;br&gt;pour afficher les quiz" style="edgeLabel;html=1;align=center;verticalAlign=middle;resizable=0;points=[];" vertex="1" connectable="0" parent="buExIWMHna82emhuYfHf-70">
          <mxGeometry x="-0.19" y="-5" relative="1" as="geometry">
            <mxPoint x="9" y="-25" as="offset" />
          </mxGeometry>
        </mxCell>
        <mxCell id="buExIWMHna82emhuYfHf-72" value="" style="endArrow=classic;html=1;rounded=0;" edge="1" parent="1">
          <mxGeometry width="50" height="50" relative="1" as="geometry">
            <mxPoint x="290" y="237" as="sourcePoint" />
            <mxPoint x="490" y="237" as="targetPoint" />
          </mxGeometry>
        </mxCell>
        <mxCell id="buExIWMHna82emhuYfHf-73" value="Le frontend fait une requête GET sur &lt;br&gt;/api/quiz afin de récupérer tous les quiz" style="edgeLabel;html=1;align=center;verticalAlign=middle;resizable=0;points=[];" vertex="1" connectable="0" parent="buExIWMHna82emhuYfHf-72">
          <mxGeometry x="-0.19" y="-5" relative="1" as="geometry">
            <mxPoint x="19" y="-25" as="offset" />
          </mxGeometry>
        </mxCell>
        <mxCell id="buExIWMHna82emhuYfHf-74" value="" style="endArrow=classic;html=1;rounded=0;" edge="1" parent="1">
          <mxGeometry width="50" height="50" relative="1" as="geometry">
            <mxPoint x="490" y="277" as="sourcePoint" />
            <mxPoint x="690" y="277" as="targetPoint" />
          </mxGeometry>
        </mxCell>
        <mxCell id="buExIWMHna82emhuYfHf-75" value="Le backend va interroger la base de &lt;br&gt;donnée afin de récupérer tous les &lt;br&gt;quiz auxquels notre utilisateur à accès" style="edgeLabel;html=1;align=center;verticalAlign=middle;resizable=0;points=[];" vertex="1" connectable="0" parent="buExIWMHna82emhuYfHf-74">
          <mxGeometry x="-0.19" y="-5" relative="1" as="geometry">
            <mxPoint x="19" y="-35" as="offset" />
          </mxGeometry>
        </mxCell>
        <mxCell id="buExIWMHna82emhuYfHf-76" value="" style="endArrow=classic;html=1;rounded=0;" edge="1" parent="1">
          <mxGeometry width="50" height="50" relative="1" as="geometry">
            <mxPoint x="690" y="317" as="sourcePoint" />
            <mxPoint x="490" y="317" as="targetPoint" />
          </mxGeometry>
        </mxCell>
        <mxCell id="buExIWMHna82emhuYfHf-77" value="La base de données rend &lt;br&gt;les données au serveur" style="edgeLabel;html=1;align=center;verticalAlign=middle;resizable=0;points=[];" vertex="1" connectable="0" parent="buExIWMHna82emhuYfHf-76">
          <mxGeometry x="-0.19" y="-5" relative="1" as="geometry">
            <mxPoint x="-23" y="-15" as="offset" />
          </mxGeometry>
        </mxCell>
        <mxCell id="buExIWMHna82emhuYfHf-78" value="" style="endArrow=classic;html=1;rounded=0;" edge="1" parent="1">
          <mxGeometry width="50" height="50" relative="1" as="geometry">
            <mxPoint x="490" y="357" as="sourcePoint" />
            <mxPoint x="290" y="357" as="targetPoint" />
          </mxGeometry>
        </mxCell>
        <mxCell id="buExIWMHna82emhuYfHf-79" value="Le backend renvoie les &lt;br&gt;données au format JSON" style="edgeLabel;html=1;align=center;verticalAlign=middle;resizable=0;points=[];" vertex="1" connectable="0" parent="buExIWMHna82emhuYfHf-78">
          <mxGeometry x="-0.19" y="-5" relative="1" as="geometry">
            <mxPoint x="-25" y="-15" as="offset" />
          </mxGeometry>
        </mxCell>
        <mxCell id="buExIWMHna82emhuYfHf-80" value="" style="endArrow=classic;html=1;rounded=0;" edge="1" parent="1">
          <mxGeometry width="50" height="50" relative="1" as="geometry">
            <mxPoint x="290" y="397" as="sourcePoint" />
            <mxPoint x="90" y="397" as="targetPoint" />
          </mxGeometry>
        </mxCell>
        <mxCell id="buExIWMHna82emhuYfHf-81" value="Le frontend affiche &lt;br&gt;les données à l&#39;utilisateur" style="edgeLabel;html=1;align=center;verticalAlign=middle;resizable=0;points=[];" vertex="1" connectable="0" parent="buExIWMHna82emhuYfHf-80">
          <mxGeometry x="-0.19" y="-5" relative="1" as="geometry">
            <mxPoint x="-23" y="-15" as="offset" />
          </mxGeometry>
        </mxCell>
      </root>
    </mxGraphModel>
  </diagram>
</mxfile>
